<?xml version="1.0" standalone="no"?><!DOCTYPE svg PUBLIC "-//W3C//DTD SVG 1.1//EN" "http://www.w3.org/Graphics/SVG/1.1/DTD/svg11.dtd"><svg t="1520671862114" class="icon" style="" viewBox="0 0 1024 1024" version="1.1" xmlns="http://www.w3.org/2000/svg" p-id="11205" xmlns:xlink="http://www.w3.org/1999/xlink" width="200" height="200"><defs><style type="text/css"></style></defs><path d="M928 832 544 832l0 64 144 0c19.2 0 32 12.8 32 32s-12.8 32-32 32L320 960c-19.2 0-32-12.8-32-32s12.8-32 32-32l160 0 0-64L96 832c-35.2 0-64-28.8-64-64L32 128c0-35.2 28.8-64 64-64l832 0c35.2 0 64 28.8 64 64l0 640C992 803.2 963.2 832 928 832zM928 128 96 128l0 640 384 0 64 0 384 0L928 128z" p-id="11206"></path></svg>