<?xml version="1.0" standalone="no"?><!DOCTYPE svg PUBLIC "-//W3C//DTD SVG 1.1//EN" "http://www.w3.org/Graphics/SVG/1.1/DTD/svg11.dtd"><svg t="1527062768271" class="icon" style="" viewBox="0 0 1024 1024" version="1.1" xmlns="http://www.w3.org/2000/svg" p-id="4820" xmlns:xlink="http://www.w3.org/1999/xlink" width="200" height="200"><defs><style type="text/css"></style></defs><path d="M402.432 871.168c0 19.792-7.168 36.864-21.504 51.2-14.336 14.336-31.408 21.84-51.2 22.528-19.792 0.688-36.864-6.832-51.2-22.528-14.336-15.696-21.84-32.768-22.528-51.2-0.688-18.432 6.832-35.504 22.528-51.2 15.696-15.696 32.768-22.88 51.2-21.504 18.432 1.36 35.504 8.528 51.2 21.504 15.696 12.96 22.88 30.032 21.504 51.2z m512 0c0 19.792-7.168 36.864-21.504 51.2-14.336 14.336-31.408 21.84-51.2 22.528-19.792 0.688-36.864-6.832-51.2-22.528-14.336-15.696-21.84-32.768-22.528-51.2-0.688-18.432 6.832-35.504 22.528-51.2 15.696-15.696 32.768-22.88 51.2-21.504 18.432 1.36 35.504 8.528 51.2 21.504 15.696 12.96 22.88 30.032 21.504 51.2zM988.16 249.6v292.864c0 8.88-3.408 16.72-10.24 23.552-6.832 6.832-14.336 10.928-22.528 12.288L358.4 647.936c4.784 23.2 7.168 37.2 7.168 41.984 0 4.784-4.432 16.384-13.312 34.816h525.312c10.24 0 19.12 3.76 26.624 11.264 7.52 7.52 10.928 16.048 10.24 25.6a44.544 44.544 0 0 1-10.24 25.6c-6.144 7.52-15.024 11.264-26.624 11.264H292.864c-9.552 0-18.08-3.76-25.6-11.264-7.52-7.52-11.264-16.048-11.264-25.6 0-4.096 1.712-10.24 5.12-18.432 3.408-8.192 6.48-15.024 9.216-20.48 2.72-5.456 6.832-12.96 12.288-22.528 5.456-9.552 8.192-15.36 8.192-17.408L190.464 212.736H73.728c-10.24 0-18.768-3.408-25.6-10.24-6.832-6.832-10.576-15.36-11.264-25.6-0.688-10.24 3.072-19.12 11.264-26.624 8.192-7.52 16.72-10.928 25.6-10.24h146.432c6.144 0 11.6 1.024 16.384 3.072 4.784 2.048 8.192 5.12 10.24 9.216 2.048 4.096 4.784 8.88 8.192 14.336 3.408 5.456 4.784 10.24 4.096 14.336-0.688 4.096 0.336 9.904 3.072 17.408 2.72 7.52 3.76 12.288 3.072 14.336h686.08c9.552 0 18.08 3.76 25.6 11.264 7.52 7.52 11.264 16.048 11.264 25.6z" p-id="4821"></path></svg>